<mxfile host="app.diagrams.net" agent="Mozilla/5.0 (Windows NT 10.0; Win64; x64) AppleWebKit/537.36 (KHTML, like Gecko) Chrome/128.0.0.0 YaBrowser/24.10.0.0 Safari/537.36" version="25.0.1">
  <diagram id="C5RBs43oDa-KdzZeNtuy" name="Page-1">
    <mxGraphModel dx="1120" dy="479" grid="1" gridSize="10" guides="1" tooltips="1" connect="1" arrows="1" fold="1" page="1" pageScale="1" pageWidth="827" pageHeight="1169" math="0" shadow="0">
      <root>
        <mxCell id="WIyWlLk6GJQsqaUBKTNV-0" />
        <mxCell id="WIyWlLk6GJQsqaUBKTNV-1" parent="WIyWlLk6GJQsqaUBKTNV-0" />
        <mxCell id="dPLS2fSIt769qiIRtILJ-6" value="Квартиры" style="shape=table;startSize=30;container=1;collapsible=0;childLayout=tableLayout;fixedRows=1;rowLines=0;fontStyle=0;fontSize=16;shadow=0;swimlaneLine=1;" parent="WIyWlLk6GJQsqaUBKTNV-1" vertex="1">
          <mxGeometry x="90" y="130" width="230" height="210" as="geometry" />
        </mxCell>
        <mxCell id="gTx_rRAlytmX4O4wb1nv-0" style="shape=tableRow;horizontal=0;startSize=0;swimlaneHead=0;swimlaneBody=0;top=0;left=0;bottom=0;right=0;collapsible=0;dropTarget=0;fillColor=none;points=[[0,0.5],[1,0.5]];portConstraint=eastwest;strokeColor=inherit;fontSize=16;" vertex="1" parent="dPLS2fSIt769qiIRtILJ-6">
          <mxGeometry y="30" width="230" height="30" as="geometry" />
        </mxCell>
        <mxCell id="gTx_rRAlytmX4O4wb1nv-1" value="PK" style="shape=partialRectangle;html=1;whiteSpace=wrap;connectable=0;fillColor=none;top=0;left=0;bottom=0;right=0;overflow=hidden;pointerEvents=1;strokeColor=inherit;fontSize=16;perimeterSpacing=1;" vertex="1" parent="gTx_rRAlytmX4O4wb1nv-0">
          <mxGeometry width="51" height="30" as="geometry">
            <mxRectangle width="51" height="30" as="alternateBounds" />
          </mxGeometry>
        </mxCell>
        <mxCell id="gTx_rRAlytmX4O4wb1nv-2" value="ID квартиры" style="shape=partialRectangle;html=1;whiteSpace=wrap;connectable=0;top=0;left=0;bottom=0;right=0;align=left;spacingLeft=6;overflow=hidden;fontSize=16;fillColor=none;" vertex="1" parent="gTx_rRAlytmX4O4wb1nv-0">
          <mxGeometry x="51" width="179" height="30" as="geometry">
            <mxRectangle width="179" height="30" as="alternateBounds" />
          </mxGeometry>
        </mxCell>
        <mxCell id="dPLS2fSIt769qiIRtILJ-7" value="" style="shape=tableRow;horizontal=0;startSize=0;swimlaneHead=0;swimlaneBody=0;top=0;left=0;bottom=0;right=0;collapsible=0;dropTarget=0;fillColor=none;points=[[0,0.5],[1,0.5]];portConstraint=eastwest;strokeColor=inherit;fontSize=16;" parent="dPLS2fSIt769qiIRtILJ-6" vertex="1">
          <mxGeometry y="60" width="230" height="30" as="geometry" />
        </mxCell>
        <mxCell id="dPLS2fSIt769qiIRtILJ-8" value="" style="shape=partialRectangle;html=1;whiteSpace=wrap;connectable=0;fillColor=none;top=0;left=0;bottom=0;right=0;overflow=hidden;pointerEvents=1;strokeColor=inherit;fontSize=16;perimeterSpacing=1;" parent="dPLS2fSIt769qiIRtILJ-7" vertex="1">
          <mxGeometry width="51" height="30" as="geometry">
            <mxRectangle width="51" height="30" as="alternateBounds" />
          </mxGeometry>
        </mxCell>
        <mxCell id="dPLS2fSIt769qiIRtILJ-9" value="Улица" style="shape=partialRectangle;html=1;whiteSpace=wrap;connectable=0;top=0;left=0;bottom=0;right=0;align=left;spacingLeft=6;overflow=hidden;fontSize=16;fillColor=none;" parent="dPLS2fSIt769qiIRtILJ-7" vertex="1">
          <mxGeometry x="51" width="179" height="30" as="geometry">
            <mxRectangle width="179" height="30" as="alternateBounds" />
          </mxGeometry>
        </mxCell>
        <mxCell id="dPLS2fSIt769qiIRtILJ-10" value="" style="shape=tableRow;horizontal=0;startSize=0;swimlaneHead=0;swimlaneBody=0;top=0;left=0;bottom=0;right=0;collapsible=0;dropTarget=0;fillColor=none;points=[[0,0.5],[1,0.5]];portConstraint=eastwest;strokeColor=inherit;fontSize=16;" parent="dPLS2fSIt769qiIRtILJ-6" vertex="1">
          <mxGeometry y="90" width="230" height="30" as="geometry" />
        </mxCell>
        <mxCell id="dPLS2fSIt769qiIRtILJ-11" value="" style="shape=partialRectangle;html=1;whiteSpace=wrap;connectable=0;fillColor=none;top=0;left=0;bottom=0;right=0;overflow=hidden;strokeColor=inherit;fontSize=16;" parent="dPLS2fSIt769qiIRtILJ-10" vertex="1">
          <mxGeometry width="51" height="30" as="geometry">
            <mxRectangle width="51" height="30" as="alternateBounds" />
          </mxGeometry>
        </mxCell>
        <mxCell id="dPLS2fSIt769qiIRtILJ-12" value="Номер дома" style="shape=partialRectangle;html=1;whiteSpace=wrap;connectable=0;fillColor=none;top=0;left=0;bottom=0;right=0;align=left;spacingLeft=6;overflow=hidden;strokeColor=inherit;fontSize=16;" parent="dPLS2fSIt769qiIRtILJ-10" vertex="1">
          <mxGeometry x="51" width="179" height="30" as="geometry">
            <mxRectangle width="179" height="30" as="alternateBounds" />
          </mxGeometry>
        </mxCell>
        <mxCell id="dPLS2fSIt769qiIRtILJ-13" value="" style="shape=tableRow;horizontal=0;startSize=0;swimlaneHead=0;swimlaneBody=0;top=0;left=0;bottom=0;right=0;collapsible=0;dropTarget=0;fillColor=none;points=[[0,0.5],[1,0.5]];portConstraint=eastwest;strokeColor=inherit;fontSize=16;" parent="dPLS2fSIt769qiIRtILJ-6" vertex="1">
          <mxGeometry y="120" width="230" height="30" as="geometry" />
        </mxCell>
        <mxCell id="dPLS2fSIt769qiIRtILJ-14" value="" style="shape=partialRectangle;html=1;whiteSpace=wrap;connectable=0;fillColor=none;top=0;left=0;bottom=0;right=0;overflow=hidden;strokeColor=inherit;fontSize=16;" parent="dPLS2fSIt769qiIRtILJ-13" vertex="1">
          <mxGeometry width="51" height="30" as="geometry">
            <mxRectangle width="51" height="30" as="alternateBounds" />
          </mxGeometry>
        </mxCell>
        <mxCell id="dPLS2fSIt769qiIRtILJ-15" value="Номер квартиры" style="shape=partialRectangle;html=1;whiteSpace=wrap;connectable=0;fillColor=none;top=0;left=0;bottom=0;right=0;align=left;spacingLeft=6;overflow=hidden;strokeColor=inherit;fontSize=16;" parent="dPLS2fSIt769qiIRtILJ-13" vertex="1">
          <mxGeometry x="51" width="179" height="30" as="geometry">
            <mxRectangle width="179" height="30" as="alternateBounds" />
          </mxGeometry>
        </mxCell>
        <mxCell id="dPLS2fSIt769qiIRtILJ-56" style="shape=tableRow;horizontal=0;startSize=0;swimlaneHead=0;swimlaneBody=0;top=0;left=0;bottom=0;right=0;collapsible=0;dropTarget=0;fillColor=none;points=[[0,0.5],[1,0.5]];portConstraint=eastwest;strokeColor=inherit;fontSize=16;" parent="dPLS2fSIt769qiIRtILJ-6" vertex="1">
          <mxGeometry y="150" width="230" height="30" as="geometry" />
        </mxCell>
        <mxCell id="dPLS2fSIt769qiIRtILJ-57" style="shape=partialRectangle;html=1;whiteSpace=wrap;connectable=0;fillColor=none;top=0;left=0;bottom=0;right=0;overflow=hidden;strokeColor=inherit;fontSize=16;" parent="dPLS2fSIt769qiIRtILJ-56" vertex="1">
          <mxGeometry width="51" height="30" as="geometry">
            <mxRectangle width="51" height="30" as="alternateBounds" />
          </mxGeometry>
        </mxCell>
        <mxCell id="dPLS2fSIt769qiIRtILJ-58" value="Площадь" style="shape=partialRectangle;html=1;whiteSpace=wrap;connectable=0;fillColor=none;top=0;left=0;bottom=0;right=0;align=left;spacingLeft=6;overflow=hidden;strokeColor=inherit;fontSize=16;" parent="dPLS2fSIt769qiIRtILJ-56" vertex="1">
          <mxGeometry x="51" width="179" height="30" as="geometry">
            <mxRectangle width="179" height="30" as="alternateBounds" />
          </mxGeometry>
        </mxCell>
        <mxCell id="dPLS2fSIt769qiIRtILJ-59" style="shape=tableRow;horizontal=0;startSize=0;swimlaneHead=0;swimlaneBody=0;top=0;left=0;bottom=0;right=0;collapsible=0;dropTarget=0;fillColor=none;points=[[0,0.5],[1,0.5]];portConstraint=eastwest;strokeColor=inherit;fontSize=16;" parent="dPLS2fSIt769qiIRtILJ-6" vertex="1">
          <mxGeometry y="180" width="230" height="30" as="geometry" />
        </mxCell>
        <mxCell id="dPLS2fSIt769qiIRtILJ-60" style="shape=partialRectangle;html=1;whiteSpace=wrap;connectable=0;fillColor=none;top=0;left=0;bottom=0;right=0;overflow=hidden;strokeColor=inherit;fontSize=16;" parent="dPLS2fSIt769qiIRtILJ-59" vertex="1">
          <mxGeometry width="51" height="30" as="geometry">
            <mxRectangle width="51" height="30" as="alternateBounds" />
          </mxGeometry>
        </mxCell>
        <mxCell id="dPLS2fSIt769qiIRtILJ-61" value="Количество комнат" style="shape=partialRectangle;html=1;whiteSpace=wrap;connectable=0;fillColor=none;top=0;left=0;bottom=0;right=0;align=left;spacingLeft=6;overflow=hidden;strokeColor=inherit;fontSize=16;" parent="dPLS2fSIt769qiIRtILJ-59" vertex="1">
          <mxGeometry x="51" width="179" height="30" as="geometry">
            <mxRectangle width="179" height="30" as="alternateBounds" />
          </mxGeometry>
        </mxCell>
        <mxCell id="dPLS2fSIt769qiIRtILJ-16" value="Сделки" style="shape=table;startSize=30;container=1;collapsible=0;childLayout=tableLayout;fixedRows=1;rowLines=0;fontStyle=0;strokeColor=default;fontSize=16;" parent="WIyWlLk6GJQsqaUBKTNV-1" vertex="1">
          <mxGeometry x="470" y="130" width="180" height="180" as="geometry" />
        </mxCell>
        <mxCell id="dPLS2fSIt769qiIRtILJ-17" value="" style="shape=tableRow;horizontal=0;startSize=0;swimlaneHead=0;swimlaneBody=0;top=0;left=0;bottom=0;right=0;collapsible=0;dropTarget=0;fillColor=none;points=[[0,0.5],[1,0.5]];portConstraint=eastwest;strokeColor=inherit;fontSize=16;" parent="dPLS2fSIt769qiIRtILJ-16" vertex="1">
          <mxGeometry y="30" width="180" height="30" as="geometry" />
        </mxCell>
        <mxCell id="dPLS2fSIt769qiIRtILJ-18" value="PK" style="shape=partialRectangle;html=1;whiteSpace=wrap;connectable=0;fillColor=none;top=0;left=0;bottom=0;right=0;overflow=hidden;pointerEvents=1;strokeColor=inherit;fontSize=16;" parent="dPLS2fSIt769qiIRtILJ-17" vertex="1">
          <mxGeometry width="40" height="30" as="geometry">
            <mxRectangle width="40" height="30" as="alternateBounds" />
          </mxGeometry>
        </mxCell>
        <mxCell id="dPLS2fSIt769qiIRtILJ-19" value="ID сделки" style="shape=partialRectangle;html=1;whiteSpace=wrap;connectable=0;fillColor=none;top=0;left=0;bottom=0;right=0;align=left;spacingLeft=6;overflow=hidden;strokeColor=inherit;fontSize=16;" parent="dPLS2fSIt769qiIRtILJ-17" vertex="1">
          <mxGeometry x="40" width="140" height="30" as="geometry">
            <mxRectangle width="140" height="30" as="alternateBounds" />
          </mxGeometry>
        </mxCell>
        <mxCell id="dPLS2fSIt769qiIRtILJ-20" value="" style="shape=tableRow;horizontal=0;startSize=0;swimlaneHead=0;swimlaneBody=0;top=0;left=0;bottom=0;right=0;collapsible=0;dropTarget=0;fillColor=none;points=[[0,0.5],[1,0.5]];portConstraint=eastwest;strokeColor=inherit;fontSize=16;" parent="dPLS2fSIt769qiIRtILJ-16" vertex="1">
          <mxGeometry y="60" width="180" height="30" as="geometry" />
        </mxCell>
        <mxCell id="dPLS2fSIt769qiIRtILJ-21" value="" style="shape=partialRectangle;html=1;whiteSpace=wrap;connectable=0;fillColor=none;top=0;left=0;bottom=0;right=0;overflow=hidden;strokeColor=inherit;fontSize=16;" parent="dPLS2fSIt769qiIRtILJ-20" vertex="1">
          <mxGeometry width="40" height="30" as="geometry">
            <mxRectangle width="40" height="30" as="alternateBounds" />
          </mxGeometry>
        </mxCell>
        <mxCell id="dPLS2fSIt769qiIRtILJ-22" value="Дата сделки" style="shape=partialRectangle;html=1;whiteSpace=wrap;connectable=0;fillColor=none;top=0;left=0;bottom=0;right=0;align=left;spacingLeft=6;overflow=hidden;strokeColor=inherit;fontSize=16;" parent="dPLS2fSIt769qiIRtILJ-20" vertex="1">
          <mxGeometry x="40" width="140" height="30" as="geometry">
            <mxRectangle width="140" height="30" as="alternateBounds" />
          </mxGeometry>
        </mxCell>
        <mxCell id="dPLS2fSIt769qiIRtILJ-23" value="" style="shape=tableRow;horizontal=0;startSize=0;swimlaneHead=0;swimlaneBody=0;top=0;left=0;bottom=0;right=0;collapsible=0;dropTarget=0;fillColor=none;points=[[0,0.5],[1,0.5]];portConstraint=eastwest;strokeColor=inherit;fontSize=16;" parent="dPLS2fSIt769qiIRtILJ-16" vertex="1">
          <mxGeometry y="90" width="180" height="30" as="geometry" />
        </mxCell>
        <mxCell id="dPLS2fSIt769qiIRtILJ-24" value="" style="shape=partialRectangle;html=1;whiteSpace=wrap;connectable=0;fillColor=none;top=0;left=0;bottom=0;right=0;overflow=hidden;strokeColor=inherit;fontSize=16;" parent="dPLS2fSIt769qiIRtILJ-23" vertex="1">
          <mxGeometry width="40" height="30" as="geometry">
            <mxRectangle width="40" height="30" as="alternateBounds" />
          </mxGeometry>
        </mxCell>
        <mxCell id="dPLS2fSIt769qiIRtILJ-25" value="Цена квартиры" style="shape=partialRectangle;html=1;whiteSpace=wrap;connectable=0;fillColor=none;top=0;left=0;bottom=0;right=0;align=left;spacingLeft=6;overflow=hidden;strokeColor=inherit;fontSize=16;" parent="dPLS2fSIt769qiIRtILJ-23" vertex="1">
          <mxGeometry x="40" width="140" height="30" as="geometry">
            <mxRectangle width="140" height="30" as="alternateBounds" />
          </mxGeometry>
        </mxCell>
        <mxCell id="dPLS2fSIt769qiIRtILJ-62" style="shape=tableRow;horizontal=0;startSize=0;swimlaneHead=0;swimlaneBody=0;top=0;left=0;bottom=0;right=0;collapsible=0;dropTarget=0;fillColor=none;points=[[0,0.5],[1,0.5]];portConstraint=eastwest;strokeColor=inherit;fontSize=16;" parent="dPLS2fSIt769qiIRtILJ-16" vertex="1">
          <mxGeometry y="120" width="180" height="30" as="geometry" />
        </mxCell>
        <mxCell id="dPLS2fSIt769qiIRtILJ-63" value="FK" style="shape=partialRectangle;html=1;whiteSpace=wrap;connectable=0;fillColor=none;top=0;left=0;bottom=0;right=0;overflow=hidden;strokeColor=inherit;fontSize=16;" parent="dPLS2fSIt769qiIRtILJ-62" vertex="1">
          <mxGeometry width="40" height="30" as="geometry">
            <mxRectangle width="40" height="30" as="alternateBounds" />
          </mxGeometry>
        </mxCell>
        <mxCell id="dPLS2fSIt769qiIRtILJ-64" value="ID квартиры" style="shape=partialRectangle;html=1;whiteSpace=wrap;connectable=0;fillColor=none;top=0;left=0;bottom=0;right=0;align=left;spacingLeft=6;overflow=hidden;strokeColor=inherit;fontSize=16;" parent="dPLS2fSIt769qiIRtILJ-62" vertex="1">
          <mxGeometry x="40" width="140" height="30" as="geometry">
            <mxRectangle width="140" height="30" as="alternateBounds" />
          </mxGeometry>
        </mxCell>
        <mxCell id="dPLS2fSIt769qiIRtILJ-65" style="shape=tableRow;horizontal=0;startSize=0;swimlaneHead=0;swimlaneBody=0;top=0;left=0;bottom=0;right=0;collapsible=0;dropTarget=0;fillColor=none;points=[[0,0.5],[1,0.5]];portConstraint=eastwest;strokeColor=inherit;fontSize=16;" parent="dPLS2fSIt769qiIRtILJ-16" vertex="1">
          <mxGeometry y="150" width="180" height="30" as="geometry" />
        </mxCell>
        <mxCell id="dPLS2fSIt769qiIRtILJ-66" value="FK" style="shape=partialRectangle;html=1;whiteSpace=wrap;connectable=0;fillColor=none;top=0;left=0;bottom=0;right=0;overflow=hidden;strokeColor=inherit;fontSize=16;" parent="dPLS2fSIt769qiIRtILJ-65" vertex="1">
          <mxGeometry width="40" height="30" as="geometry">
            <mxRectangle width="40" height="30" as="alternateBounds" />
          </mxGeometry>
        </mxCell>
        <mxCell id="dPLS2fSIt769qiIRtILJ-67" value="ID риэлтора" style="shape=partialRectangle;html=1;whiteSpace=wrap;connectable=0;fillColor=none;top=0;left=0;bottom=0;right=0;align=left;spacingLeft=6;overflow=hidden;strokeColor=inherit;fontSize=16;" parent="dPLS2fSIt769qiIRtILJ-65" vertex="1">
          <mxGeometry x="40" width="140" height="30" as="geometry">
            <mxRectangle width="140" height="30" as="alternateBounds" />
          </mxGeometry>
        </mxCell>
        <mxCell id="dPLS2fSIt769qiIRtILJ-26" value="Риэлторы" style="shape=table;startSize=30;container=1;collapsible=0;childLayout=tableLayout;fixedRows=1;rowLines=0;fontStyle=0;strokeColor=default;fontSize=16;" parent="WIyWlLk6GJQsqaUBKTNV-1" vertex="1">
          <mxGeometry x="70" y="440" width="270" height="120" as="geometry" />
        </mxCell>
        <mxCell id="dPLS2fSIt769qiIRtILJ-27" value="" style="shape=tableRow;horizontal=0;startSize=0;swimlaneHead=0;swimlaneBody=0;top=0;left=0;bottom=0;right=0;collapsible=0;dropTarget=0;fillColor=none;points=[[0,0.5],[1,0.5]];portConstraint=eastwest;strokeColor=inherit;fontSize=16;" parent="dPLS2fSIt769qiIRtILJ-26" vertex="1">
          <mxGeometry y="30" width="270" height="30" as="geometry" />
        </mxCell>
        <mxCell id="dPLS2fSIt769qiIRtILJ-28" value="PK" style="shape=partialRectangle;html=1;whiteSpace=wrap;connectable=0;fillColor=none;top=0;left=0;bottom=0;right=0;overflow=hidden;pointerEvents=1;strokeColor=inherit;fontSize=16;" parent="dPLS2fSIt769qiIRtILJ-27" vertex="1">
          <mxGeometry width="60" height="30" as="geometry">
            <mxRectangle width="60" height="30" as="alternateBounds" />
          </mxGeometry>
        </mxCell>
        <mxCell id="dPLS2fSIt769qiIRtILJ-29" value="ID риэлтора" style="shape=partialRectangle;html=1;whiteSpace=wrap;connectable=0;fillColor=none;top=0;left=0;bottom=0;right=0;align=left;spacingLeft=6;overflow=hidden;strokeColor=inherit;fontSize=16;" parent="dPLS2fSIt769qiIRtILJ-27" vertex="1">
          <mxGeometry x="60" width="210" height="30" as="geometry">
            <mxRectangle width="210" height="30" as="alternateBounds" />
          </mxGeometry>
        </mxCell>
        <mxCell id="dPLS2fSIt769qiIRtILJ-30" value="" style="shape=tableRow;horizontal=0;startSize=0;swimlaneHead=0;swimlaneBody=0;top=0;left=0;bottom=0;right=0;collapsible=0;dropTarget=0;fillColor=none;points=[[0,0.5],[1,0.5]];portConstraint=eastwest;strokeColor=inherit;fontSize=16;" parent="dPLS2fSIt769qiIRtILJ-26" vertex="1">
          <mxGeometry y="60" width="270" height="30" as="geometry" />
        </mxCell>
        <mxCell id="dPLS2fSIt769qiIRtILJ-31" value="" style="shape=partialRectangle;html=1;whiteSpace=wrap;connectable=0;fillColor=none;top=0;left=0;bottom=0;right=0;overflow=hidden;strokeColor=inherit;fontSize=16;" parent="dPLS2fSIt769qiIRtILJ-30" vertex="1">
          <mxGeometry width="60" height="30" as="geometry">
            <mxRectangle width="60" height="30" as="alternateBounds" />
          </mxGeometry>
        </mxCell>
        <mxCell id="dPLS2fSIt769qiIRtILJ-32" value="ФИО" style="shape=partialRectangle;html=1;whiteSpace=wrap;connectable=0;fillColor=none;top=0;left=0;bottom=0;right=0;align=left;spacingLeft=6;overflow=hidden;strokeColor=inherit;fontSize=16;" parent="dPLS2fSIt769qiIRtILJ-30" vertex="1">
          <mxGeometry x="60" width="210" height="30" as="geometry">
            <mxRectangle width="210" height="30" as="alternateBounds" />
          </mxGeometry>
        </mxCell>
        <mxCell id="dPLS2fSIt769qiIRtILJ-33" value="" style="shape=tableRow;horizontal=0;startSize=0;swimlaneHead=0;swimlaneBody=0;top=0;left=0;bottom=0;right=0;collapsible=0;dropTarget=0;fillColor=none;points=[[0,0.5],[1,0.5]];portConstraint=eastwest;strokeColor=inherit;fontSize=16;" parent="dPLS2fSIt769qiIRtILJ-26" vertex="1">
          <mxGeometry y="90" width="270" height="30" as="geometry" />
        </mxCell>
        <mxCell id="dPLS2fSIt769qiIRtILJ-34" value="" style="shape=partialRectangle;html=1;whiteSpace=wrap;connectable=0;fillColor=none;top=0;left=0;bottom=0;right=0;overflow=hidden;strokeColor=inherit;fontSize=16;" parent="dPLS2fSIt769qiIRtILJ-33" vertex="1">
          <mxGeometry width="60" height="30" as="geometry">
            <mxRectangle width="60" height="30" as="alternateBounds" />
          </mxGeometry>
        </mxCell>
        <mxCell id="dPLS2fSIt769qiIRtILJ-35" value="Процент вознаграждения" style="shape=partialRectangle;html=1;whiteSpace=wrap;connectable=0;fillColor=none;top=0;left=0;bottom=0;right=0;align=left;spacingLeft=6;overflow=hidden;strokeColor=inherit;fontSize=16;" parent="dPLS2fSIt769qiIRtILJ-33" vertex="1">
          <mxGeometry x="60" width="210" height="30" as="geometry">
            <mxRectangle width="210" height="30" as="alternateBounds" />
          </mxGeometry>
        </mxCell>
        <mxCell id="dPLS2fSIt769qiIRtILJ-36" value="Клиенты" style="shape=table;startSize=30;container=1;collapsible=0;childLayout=tableLayout;fixedRows=1;rowLines=0;fontStyle=0;strokeColor=default;fontSize=16;" parent="WIyWlLk6GJQsqaUBKTNV-1" vertex="1">
          <mxGeometry x="450" y="440" width="260" height="120" as="geometry" />
        </mxCell>
        <mxCell id="dPLS2fSIt769qiIRtILJ-37" value="" style="shape=tableRow;horizontal=0;startSize=0;swimlaneHead=0;swimlaneBody=0;top=0;left=0;bottom=0;right=0;collapsible=0;dropTarget=0;fillColor=none;points=[[0,0.5],[1,0.5]];portConstraint=eastwest;strokeColor=inherit;fontSize=16;" parent="dPLS2fSIt769qiIRtILJ-36" vertex="1">
          <mxGeometry y="30" width="260" height="30" as="geometry" />
        </mxCell>
        <mxCell id="dPLS2fSIt769qiIRtILJ-38" value="PK" style="shape=partialRectangle;html=1;whiteSpace=wrap;connectable=0;fillColor=none;top=0;left=0;bottom=0;right=0;overflow=hidden;pointerEvents=1;strokeColor=inherit;fontSize=16;" parent="dPLS2fSIt769qiIRtILJ-37" vertex="1">
          <mxGeometry width="57" height="30" as="geometry">
            <mxRectangle width="57" height="30" as="alternateBounds" />
          </mxGeometry>
        </mxCell>
        <mxCell id="dPLS2fSIt769qiIRtILJ-39" value="ID клиента" style="shape=partialRectangle;html=1;whiteSpace=wrap;connectable=0;fillColor=none;top=0;left=0;bottom=0;right=0;align=left;spacingLeft=6;overflow=hidden;strokeColor=inherit;fontSize=16;" parent="dPLS2fSIt769qiIRtILJ-37" vertex="1">
          <mxGeometry x="57" width="203" height="30" as="geometry">
            <mxRectangle width="203" height="30" as="alternateBounds" />
          </mxGeometry>
        </mxCell>
        <mxCell id="dPLS2fSIt769qiIRtILJ-40" value="" style="shape=tableRow;horizontal=0;startSize=0;swimlaneHead=0;swimlaneBody=0;top=0;left=0;bottom=0;right=0;collapsible=0;dropTarget=0;fillColor=none;points=[[0,0.5],[1,0.5]];portConstraint=eastwest;strokeColor=inherit;fontSize=16;" parent="dPLS2fSIt769qiIRtILJ-36" vertex="1">
          <mxGeometry y="60" width="260" height="30" as="geometry" />
        </mxCell>
        <mxCell id="dPLS2fSIt769qiIRtILJ-41" value="" style="shape=partialRectangle;html=1;whiteSpace=wrap;connectable=0;fillColor=none;top=0;left=0;bottom=0;right=0;overflow=hidden;strokeColor=inherit;fontSize=16;" parent="dPLS2fSIt769qiIRtILJ-40" vertex="1">
          <mxGeometry width="57" height="30" as="geometry">
            <mxRectangle width="57" height="30" as="alternateBounds" />
          </mxGeometry>
        </mxCell>
        <mxCell id="dPLS2fSIt769qiIRtILJ-42" value="ФИО" style="shape=partialRectangle;html=1;whiteSpace=wrap;connectable=0;fillColor=none;top=0;left=0;bottom=0;right=0;align=left;spacingLeft=6;overflow=hidden;strokeColor=inherit;fontSize=16;" parent="dPLS2fSIt769qiIRtILJ-40" vertex="1">
          <mxGeometry x="57" width="203" height="30" as="geometry">
            <mxRectangle width="203" height="30" as="alternateBounds" />
          </mxGeometry>
        </mxCell>
        <mxCell id="dPLS2fSIt769qiIRtILJ-43" value="" style="shape=tableRow;horizontal=0;startSize=0;swimlaneHead=0;swimlaneBody=0;top=0;left=0;bottom=0;right=0;collapsible=0;dropTarget=0;fillColor=none;points=[[0,0.5],[1,0.5]];portConstraint=eastwest;strokeColor=inherit;fontSize=16;" parent="dPLS2fSIt769qiIRtILJ-36" vertex="1">
          <mxGeometry y="90" width="260" height="30" as="geometry" />
        </mxCell>
        <mxCell id="dPLS2fSIt769qiIRtILJ-44" value="" style="shape=partialRectangle;html=1;whiteSpace=wrap;connectable=0;fillColor=none;top=0;left=0;bottom=0;right=0;overflow=hidden;strokeColor=inherit;fontSize=16;" parent="dPLS2fSIt769qiIRtILJ-43" vertex="1">
          <mxGeometry width="57" height="30" as="geometry">
            <mxRectangle width="57" height="30" as="alternateBounds" />
          </mxGeometry>
        </mxCell>
        <mxCell id="dPLS2fSIt769qiIRtILJ-45" value="Контактная информация" style="shape=partialRectangle;html=1;whiteSpace=wrap;connectable=0;fillColor=none;top=0;left=0;bottom=0;right=0;align=left;spacingLeft=6;overflow=hidden;strokeColor=inherit;fontSize=16;" parent="dPLS2fSIt769qiIRtILJ-43" vertex="1">
          <mxGeometry x="57" width="203" height="30" as="geometry">
            <mxRectangle width="203" height="30" as="alternateBounds" />
          </mxGeometry>
        </mxCell>
        <mxCell id="dPLS2fSIt769qiIRtILJ-46" value="Сделки-Клиенты" style="shape=table;startSize=30;container=1;collapsible=0;childLayout=tableLayout;fixedRows=1;rowLines=0;fontStyle=0;strokeColor=default;fontSize=16;" parent="WIyWlLk6GJQsqaUBKTNV-1" vertex="1">
          <mxGeometry x="827" y="220" width="260" height="150" as="geometry" />
        </mxCell>
        <mxCell id="2luHgqxiyE7t4wCKcViQ-14" style="shape=tableRow;horizontal=0;startSize=0;swimlaneHead=0;swimlaneBody=0;top=0;left=0;bottom=0;right=0;collapsible=0;dropTarget=0;fillColor=none;points=[[0,0.5],[1,0.5]];portConstraint=eastwest;strokeColor=inherit;fontSize=16;" parent="dPLS2fSIt769qiIRtILJ-46" vertex="1">
          <mxGeometry y="30" width="260" height="30" as="geometry" />
        </mxCell>
        <mxCell id="2luHgqxiyE7t4wCKcViQ-15" value="PK" style="shape=partialRectangle;html=1;whiteSpace=wrap;connectable=0;fillColor=none;top=0;left=0;bottom=0;right=0;overflow=hidden;pointerEvents=1;strokeColor=inherit;fontSize=16;" parent="2luHgqxiyE7t4wCKcViQ-14" vertex="1">
          <mxGeometry width="57" height="30" as="geometry">
            <mxRectangle width="57" height="30" as="alternateBounds" />
          </mxGeometry>
        </mxCell>
        <mxCell id="2luHgqxiyE7t4wCKcViQ-16" value="ID сделки_клиенты" style="shape=partialRectangle;html=1;whiteSpace=wrap;connectable=0;fillColor=none;top=0;left=0;bottom=0;right=0;align=left;spacingLeft=6;overflow=hidden;strokeColor=inherit;fontSize=16;" parent="2luHgqxiyE7t4wCKcViQ-14" vertex="1">
          <mxGeometry x="57" width="203" height="30" as="geometry">
            <mxRectangle width="203" height="30" as="alternateBounds" />
          </mxGeometry>
        </mxCell>
        <mxCell id="dPLS2fSIt769qiIRtILJ-47" value="" style="shape=tableRow;horizontal=0;startSize=0;swimlaneHead=0;swimlaneBody=0;top=0;left=0;bottom=0;right=0;collapsible=0;dropTarget=0;fillColor=none;points=[[0,0.5],[1,0.5]];portConstraint=eastwest;strokeColor=inherit;fontSize=16;" parent="dPLS2fSIt769qiIRtILJ-46" vertex="1">
          <mxGeometry y="60" width="260" height="30" as="geometry" />
        </mxCell>
        <mxCell id="dPLS2fSIt769qiIRtILJ-48" value="FK" style="shape=partialRectangle;html=1;whiteSpace=wrap;connectable=0;fillColor=none;top=0;left=0;bottom=0;right=0;overflow=hidden;pointerEvents=1;strokeColor=inherit;fontSize=16;" parent="dPLS2fSIt769qiIRtILJ-47" vertex="1">
          <mxGeometry width="57" height="30" as="geometry">
            <mxRectangle width="57" height="30" as="alternateBounds" />
          </mxGeometry>
        </mxCell>
        <mxCell id="dPLS2fSIt769qiIRtILJ-49" value="ID сделки" style="shape=partialRectangle;html=1;whiteSpace=wrap;connectable=0;fillColor=none;top=0;left=0;bottom=0;right=0;align=left;spacingLeft=6;overflow=hidden;strokeColor=inherit;fontSize=16;" parent="dPLS2fSIt769qiIRtILJ-47" vertex="1">
          <mxGeometry x="57" width="203" height="30" as="geometry">
            <mxRectangle width="203" height="30" as="alternateBounds" />
          </mxGeometry>
        </mxCell>
        <mxCell id="dPLS2fSIt769qiIRtILJ-50" value="" style="shape=tableRow;horizontal=0;startSize=0;swimlaneHead=0;swimlaneBody=0;top=0;left=0;bottom=0;right=0;collapsible=0;dropTarget=0;fillColor=none;points=[[0,0.5],[1,0.5]];portConstraint=eastwest;strokeColor=inherit;fontSize=16;" parent="dPLS2fSIt769qiIRtILJ-46" vertex="1">
          <mxGeometry y="90" width="260" height="30" as="geometry" />
        </mxCell>
        <mxCell id="dPLS2fSIt769qiIRtILJ-51" value="FK" style="shape=partialRectangle;html=1;whiteSpace=wrap;connectable=0;fillColor=none;top=0;left=0;bottom=0;right=0;overflow=hidden;strokeColor=inherit;fontSize=16;" parent="dPLS2fSIt769qiIRtILJ-50" vertex="1">
          <mxGeometry width="57" height="30" as="geometry">
            <mxRectangle width="57" height="30" as="alternateBounds" />
          </mxGeometry>
        </mxCell>
        <mxCell id="dPLS2fSIt769qiIRtILJ-52" value="ID клиента" style="shape=partialRectangle;html=1;whiteSpace=wrap;connectable=0;fillColor=none;top=0;left=0;bottom=0;right=0;align=left;spacingLeft=6;overflow=hidden;strokeColor=inherit;fontSize=16;" parent="dPLS2fSIt769qiIRtILJ-50" vertex="1">
          <mxGeometry x="57" width="203" height="30" as="geometry">
            <mxRectangle width="203" height="30" as="alternateBounds" />
          </mxGeometry>
        </mxCell>
        <mxCell id="dPLS2fSIt769qiIRtILJ-53" value="" style="shape=tableRow;horizontal=0;startSize=0;swimlaneHead=0;swimlaneBody=0;top=0;left=0;bottom=0;right=0;collapsible=0;dropTarget=0;fillColor=none;points=[[0,0.5],[1,0.5]];portConstraint=eastwest;strokeColor=inherit;fontSize=16;" parent="dPLS2fSIt769qiIRtILJ-46" vertex="1">
          <mxGeometry y="120" width="260" height="30" as="geometry" />
        </mxCell>
        <mxCell id="dPLS2fSIt769qiIRtILJ-54" value="" style="shape=partialRectangle;html=1;whiteSpace=wrap;connectable=0;fillColor=none;top=0;left=0;bottom=0;right=0;overflow=hidden;strokeColor=inherit;fontSize=16;" parent="dPLS2fSIt769qiIRtILJ-53" vertex="1">
          <mxGeometry width="57" height="30" as="geometry">
            <mxRectangle width="57" height="30" as="alternateBounds" />
          </mxGeometry>
        </mxCell>
        <mxCell id="dPLS2fSIt769qiIRtILJ-55" value="Роль клиента" style="shape=partialRectangle;html=1;whiteSpace=wrap;connectable=0;fillColor=none;top=0;left=0;bottom=0;right=0;align=left;spacingLeft=6;overflow=hidden;strokeColor=inherit;fontSize=16;" parent="dPLS2fSIt769qiIRtILJ-53" vertex="1">
          <mxGeometry x="57" width="203" height="30" as="geometry">
            <mxRectangle width="203" height="30" as="alternateBounds" />
          </mxGeometry>
        </mxCell>
        <mxCell id="2luHgqxiyE7t4wCKcViQ-0" style="edgeStyle=orthogonalEdgeStyle;rounded=1;orthogonalLoop=1;jettySize=auto;html=1;exitX=1;exitY=0.5;exitDx=0;exitDy=0;entryX=0;entryY=0.5;entryDx=0;entryDy=0;curved=0;startArrow=ERmandOne;startFill=0;endArrow=ERmandOne;endFill=0;" parent="WIyWlLk6GJQsqaUBKTNV-1" source="gTx_rRAlytmX4O4wb1nv-0" target="dPLS2fSIt769qiIRtILJ-62" edge="1">
          <mxGeometry relative="1" as="geometry" />
        </mxCell>
        <mxCell id="2luHgqxiyE7t4wCKcViQ-11" style="edgeStyle=orthogonalEdgeStyle;rounded=1;orthogonalLoop=1;jettySize=auto;html=1;exitX=1;exitY=0.5;exitDx=0;exitDy=0;entryX=0;entryY=0.5;entryDx=0;entryDy=0;elbow=vertical;curved=0;endArrow=ERoneToMany;endFill=0;" parent="WIyWlLk6GJQsqaUBKTNV-1" source="dPLS2fSIt769qiIRtILJ-27" target="dPLS2fSIt769qiIRtILJ-65" edge="1">
          <mxGeometry relative="1" as="geometry" />
        </mxCell>
        <mxCell id="2luHgqxiyE7t4wCKcViQ-12" style="edgeStyle=orthogonalEdgeStyle;rounded=1;orthogonalLoop=1;jettySize=auto;html=1;exitX=1;exitY=0.5;exitDx=0;exitDy=0;entryX=0;entryY=0.5;entryDx=0;entryDy=0;elbow=vertical;curved=0;endArrow=ERoneToMany;endFill=0;" parent="WIyWlLk6GJQsqaUBKTNV-1" source="dPLS2fSIt769qiIRtILJ-17" target="dPLS2fSIt769qiIRtILJ-47" edge="1">
          <mxGeometry relative="1" as="geometry" />
        </mxCell>
        <mxCell id="2luHgqxiyE7t4wCKcViQ-13" style="edgeStyle=orthogonalEdgeStyle;rounded=1;orthogonalLoop=1;jettySize=auto;html=1;exitX=1;exitY=0.5;exitDx=0;exitDy=0;entryX=0;entryY=0.5;entryDx=0;entryDy=0;elbow=vertical;curved=0;endArrow=ERoneToMany;endFill=0;" parent="WIyWlLk6GJQsqaUBKTNV-1" source="dPLS2fSIt769qiIRtILJ-37" target="dPLS2fSIt769qiIRtILJ-50" edge="1">
          <mxGeometry relative="1" as="geometry" />
        </mxCell>
        <mxCell id="IgTg9yIPQm7_chnhCL9y-0" value="Связь клиентов и сделок через дополнительную сущность" style="text;align=center;html=1;verticalAlign=middle;whiteSpace=wrap;rounded=0;glass=0;shadow=0;fillColor=default;" parent="WIyWlLk6GJQsqaUBKTNV-1" vertex="1">
          <mxGeometry x="670" y="210" width="150" height="60" as="geometry" />
        </mxCell>
        <mxCell id="IgTg9yIPQm7_chnhCL9y-2" value="Связь клиентов и сделок через дополнительную сущность" style="text;align=center;html=1;verticalAlign=middle;whiteSpace=wrap;rounded=0;glass=0;shadow=0;fillColor=default;strokeWidth=1;strokeColor=none;" parent="WIyWlLk6GJQsqaUBKTNV-1" vertex="1">
          <mxGeometry x="710" y="380" width="150" height="60" as="geometry" />
        </mxCell>
        <mxCell id="IgTg9yIPQm7_chnhCL9y-3" value="Один риэлтор может участвовать в нескольких сделках" style="text;align=center;html=1;verticalAlign=middle;whiteSpace=wrap;rounded=0;glass=0;shadow=0;fillColor=default;strokeWidth=1;strokeColor=none;" parent="WIyWlLk6GJQsqaUBKTNV-1" vertex="1">
          <mxGeometry x="310" y="350" width="200" height="60" as="geometry" />
        </mxCell>
        <mxCell id="IgTg9yIPQm7_chnhCL9y-4" value="Каждая квартира участвует только в одной сделке" style="text;align=center;html=1;verticalAlign=middle;whiteSpace=wrap;rounded=0;glass=0;shadow=0;fillColor=default;strokeWidth=1;strokeColor=none;" parent="WIyWlLk6GJQsqaUBKTNV-1" vertex="1">
          <mxGeometry x="320" y="110" width="150" height="60" as="geometry" />
        </mxCell>
        <mxCell id="IgTg9yIPQm7_chnhCL9y-5" value="&lt;h3 style=&quot;text-align: justify;&quot;&gt;&lt;font style=&quot;font-weight: normal;&quot;&gt;&lt;span style=&quot;font-size: 11px;&quot;&gt;&amp;nbsp;&lt;/span&gt;&lt;u style=&quot;&quot;&gt;&lt;font style=&quot;font-size: 12px;&quot;&gt;Сущности:&lt;/font&gt;&lt;/u&gt;&lt;/font&gt;&lt;/h3&gt;&lt;h3 style=&quot;text-align: justify;&quot;&gt;&lt;span style=&quot;font-size: 11px; background-color: initial; font-weight: normal;&quot;&gt;1) Таблица &quot;Квартиры&quot;: ключевой объект, который х&lt;/span&gt;&lt;span style=&quot;font-size: 11px; background-color: initial; font-weight: normal;&quot;&gt;ранит информацию о недвижимости, которая участвует в сделках.&lt;/span&gt;&lt;/h3&gt;&lt;h3 style=&quot;text-align: justify;&quot;&gt;&lt;span style=&quot;font-size: 11px; background-color: initial; font-weight: normal;&quot;&gt;Ключевые атрибуты&lt;/span&gt;&lt;span style=&quot;font-size: 11px; background-color: initial; font-weight: normal;&quot;&gt;:&amp;nbsp;&lt;/span&gt;&lt;code style=&quot;background-color: initial; font-size: 11px; font-weight: normal;&quot;&gt;Улица&lt;/code&gt;&lt;span style=&quot;background-color: initial; font-size: 11px; font-weight: normal;&quot;&gt;, &lt;/span&gt;&lt;code style=&quot;background-color: initial; font-size: 11px; font-weight: normal;&quot;&gt;Номер дома&lt;/code&gt;&lt;span style=&quot;background-color: initial; font-size: 11px; font-weight: normal;&quot;&gt;, &lt;/span&gt;&lt;code style=&quot;background-color: initial; font-size: 11px; font-weight: normal;&quot;&gt;Номер квартиры&lt;/code&gt;&lt;span style=&quot;background-color: initial; font-size: 11px; font-weight: normal;&quot;&gt; образуют составной первичный ключ (&lt;/span&gt;&lt;span style=&quot;background-color: initial; font-size: 11px; font-weight: normal;&quot;&gt;PK&lt;/span&gt;&lt;span style=&quot;background-color: initial; font-size: 11px; font-weight: normal;&quot;&gt;), так как каждая квартира уникально идентифицируется комбинацией этих трех полей&lt;/span&gt;&lt;/h3&gt;&lt;h3 style=&quot;text-align: justify;&quot;&gt;&lt;span style=&quot;font-size: 11px; background-color: initial; font-weight: normal;&quot;&gt;Атрибуты&lt;/span&gt;&lt;span style=&quot;font-size: 11px; background-color: initial; font-weight: normal;&quot;&gt;:&amp;nbsp;&lt;/span&gt;&lt;code style=&quot;background-color: initial; font-size: 11px; font-weight: normal;&quot;&gt;Площадь&lt;/code&gt;&lt;span style=&quot;background-color: initial; font-size: 11px; font-weight: normal;&quot;&gt; и &lt;/span&gt;&lt;code style=&quot;background-color: initial; font-size: 11px; font-weight: normal;&quot;&gt;Количество комнат&lt;/code&gt;&lt;span style=&quot;background-color: initial; font-size: 11px; font-weight: normal;&quot;&gt; — характеристики недвижимости, влияющие на её стоимость.&lt;/span&gt;&lt;/h3&gt;&lt;h4 style=&quot;text-align: justify;&quot;&gt;&lt;font style=&quot;font-size: 11px; font-weight: normal;&quot;&gt;2) Таблица &quot;Риэлторы&quot;: ключевой объект, который х&lt;/font&gt;&lt;span style=&quot;font-size: 11px; background-color: initial; font-weight: normal;&quot;&gt;ранит данные о риэлторах, которые заключают сделки.&lt;/span&gt;&lt;/h4&gt;&lt;h4 style=&quot;text-align: justify;&quot;&gt;&lt;span style=&quot;font-size: 11px; background-color: initial; font-weight: normal;&quot;&gt;Ключевые атрибуты&lt;/span&gt;&lt;span style=&quot;font-size: 11px; background-color: initial; font-weight: normal;&quot;&gt;:&amp;nbsp;&lt;/span&gt;&lt;code style=&quot;background-color: initial; font-size: 11px; font-weight: normal;&quot;&gt;ID риэлтора&lt;/code&gt;&lt;span style=&quot;background-color: initial; font-size: 11px; font-weight: normal;&quot;&gt; — первичный ключ (&lt;/span&gt;&lt;span style=&quot;background-color: initial; font-size: 11px; font-weight: normal;&quot;&gt;PK&lt;/span&gt;&lt;span style=&quot;background-color: initial; font-size: 11px; font-weight: normal;&quot;&gt;), уникально идентифицирующий риэлтора.&lt;/span&gt;&lt;/h4&gt;&lt;h4 style=&quot;text-align: justify;&quot;&gt;&lt;span style=&quot;font-size: 11px; background-color: initial; font-weight: normal;&quot;&gt;Атрибуты&lt;/span&gt;&lt;span style=&quot;font-size: 11px; background-color: initial; font-weight: normal;&quot;&gt;:&lt;/span&gt;&lt;/h4&gt;&lt;h4 style=&quot;text-align: justify;&quot;&gt;&lt;code style=&quot;font-size: 11px; background-color: initial; font-weight: normal;&quot;&gt;&lt;font face=&quot;Helvetica&quot;&gt;-&amp;nbsp;&lt;/font&gt;ФИО&lt;/code&gt;&lt;span style=&quot;font-size: 11px; background-color: initial; font-weight: normal;&quot;&gt; — личные данные риэлтора.&lt;/span&gt;&lt;/h4&gt;&lt;h4 style=&quot;text-align: justify;&quot;&gt;&lt;code style=&quot;font-size: 11px; background-color: initial; font-weight: normal;&quot;&gt;&lt;font face=&quot;Helvetica&quot;&gt;-&amp;nbsp;&lt;/font&gt;Процент вознаграждения&lt;/code&gt;&lt;span style=&quot;font-size: 11px; background-color: initial; font-weight: normal;&quot;&gt; — фиксированный процент, по которому рассчитывается вознаграждение.&lt;/span&gt;&lt;/h4&gt;&lt;h4 style=&quot;text-align: justify;&quot;&gt;&lt;span style=&quot;font-size: 11px; font-weight: normal; background-color: initial;&quot;&gt;3) Таблица &quot;Клиенты&quot;: ключевой объект, который с&lt;/span&gt;&lt;span style=&quot;font-size: 11px; background-color: initial; font-weight: normal;&quot;&gt;одержит данные о клиентах, участвующих в сделках.&lt;/span&gt;&lt;/h4&gt;&lt;h4 style=&quot;text-align: justify;&quot;&gt;&lt;span style=&quot;font-size: 11px; background-color: initial; font-weight: normal;&quot;&gt;Ключевые атрибуты&lt;/span&gt;&lt;span style=&quot;font-size: 11px; background-color: initial; font-weight: normal;&quot;&gt;:&amp;nbsp;&lt;/span&gt;&lt;code style=&quot;font-size: 11px; background-color: initial; font-weight: normal;&quot;&gt;ID клиента&lt;/code&gt;&lt;span style=&quot;font-size: 11px; background-color: initial; font-weight: normal;&quot;&gt; — первичный ключ (PK), уникально идентифицирующий клиента.&lt;/span&gt;&lt;/h4&gt;&lt;h4 style=&quot;text-align: justify;&quot;&gt;&lt;span style=&quot;font-size: 11px; background-color: initial; font-weight: normal;&quot;&gt;Атрибуты&lt;/span&gt;&lt;span style=&quot;font-size: 11px; background-color: initial; font-weight: normal;&quot;&gt;:&amp;nbsp;&lt;/span&gt;&lt;code style=&quot;background-color: initial; font-size: 11px; font-weight: normal;&quot;&gt;ФИО&lt;/code&gt;&lt;span style=&quot;background-color: initial; font-size: 11px; font-weight: normal;&quot;&gt; и &lt;/span&gt;&lt;code style=&quot;background-color: initial; font-size: 11px; font-weight: normal;&quot;&gt;Контактная информация&lt;/code&gt;&lt;span style=&quot;background-color: initial; font-size: 11px; font-weight: normal;&quot;&gt; — данные, необходимые для идентификации клиента.&lt;/span&gt;&lt;/h4&gt;&lt;h4 style=&quot;text-align: justify;&quot;&gt;&lt;span style=&quot;font-size: 11px; font-weight: normal; background-color: initial;&quot;&gt;4) Таблица &quot;Сделки&quot;: ф&lt;/span&gt;&lt;span style=&quot;font-size: 11px; background-color: initial; font-weight: normal;&quot;&gt;иксирует каждую сделку, включая информацию о квартире, риэлторе и стоимости.&lt;/span&gt;&lt;/h4&gt;&lt;h4 style=&quot;text-align: justify;&quot;&gt;&lt;span style=&quot;font-size: 11px; background-color: initial; font-weight: normal;&quot;&gt;Ключевые атрибуты&lt;/span&gt;&lt;span style=&quot;font-size: 11px; background-color: initial; font-weight: normal;&quot;&gt;:&amp;nbsp;&lt;/span&gt;&lt;code style=&quot;font-size: 11px; background-color: initial; font-weight: normal;&quot;&gt;ID сделки&lt;/code&gt;&lt;span style=&quot;font-size: 11px; background-color: initial; font-weight: normal;&quot;&gt; — первичный ключ (PK) для идентификации сделки.&lt;/span&gt;&lt;/h4&gt;&lt;h4 style=&quot;text-align: justify;&quot;&gt;&lt;span style=&quot;font-size: 11px; background-color: initial; font-weight: normal;&quot;&gt;Атрибуты&lt;/span&gt;&lt;span style=&quot;font-size: 11px; background-color: initial; font-weight: normal;&quot;&gt;:&lt;/span&gt;&lt;/h4&gt;&lt;h4 style=&quot;text-align: justify;&quot;&gt;&lt;code style=&quot;font-size: 11px; background-color: initial; font-weight: normal;&quot;&gt;&lt;font face=&quot;Helvetica&quot;&gt;-&amp;nbsp;&lt;/font&gt;Дата сделки&lt;/code&gt;&lt;span style=&quot;font-size: 11px; background-color: initial; font-weight: normal;&quot;&gt;, &lt;/span&gt;&lt;code style=&quot;font-size: 11px; background-color: initial; font-weight: normal;&quot;&gt;Цена квартиры&lt;/code&gt;&lt;span style=&quot;font-size: 11px; background-color: initial; font-weight: normal;&quot;&gt; — основные характеристики сделки.&lt;/span&gt;&lt;/h4&gt;&lt;h4 style=&quot;text-align: justify;&quot;&gt;&lt;code style=&quot;font-size: 11px; background-color: initial; font-weight: normal;&quot;&gt;&lt;font face=&quot;Helvetica&quot;&gt;-&amp;nbsp;&lt;/font&gt;ID квартиры&lt;/code&gt;&lt;span style=&quot;font-size: 11px; background-color: initial; font-weight: normal;&quot;&gt; (FK) — внешний ключ на таблицу &quot;Квартиры&quot;.&lt;/span&gt;&lt;/h4&gt;&lt;h4 style=&quot;text-align: justify;&quot;&gt;&lt;code style=&quot;font-size: 11px; background-color: initial; font-weight: normal;&quot;&gt;&lt;font face=&quot;Helvetica&quot;&gt;-&amp;nbsp;&lt;/font&gt;ID риэлтора&lt;/code&gt;&lt;span style=&quot;font-size: 11px; background-color: initial; font-weight: normal;&quot;&gt; (FK) — внешний ключ на таблицу &quot;Риэлторы&quot;.&lt;/span&gt;&lt;/h4&gt;&lt;h4 style=&quot;text-align: justify;&quot;&gt;&lt;span style=&quot;font-size: 11px; font-weight: normal; background-color: initial;&quot;&gt;5) Таблица &quot;Сделки-Клиенты&quot;: п&lt;/span&gt;&lt;span style=&quot;font-size: 11px; background-color: initial; font-weight: normal;&quot;&gt;ромежуточная таблица для устранения связи &quot;многие ко многим&quot; между &quot;Сделки&quot; и &quot;Клиенты&quot;.&lt;/span&gt;&lt;/h4&gt;&lt;h4 style=&quot;text-align: justify;&quot;&gt;&lt;span style=&quot;font-size: 11px; background-color: initial; font-weight: normal;&quot;&gt;Ключевые атрибуты&lt;/span&gt;&lt;span style=&quot;font-size: 11px; background-color: initial; font-weight: normal;&quot;&gt;:&amp;nbsp;&lt;/span&gt;&lt;code style=&quot;font-size: 11px; background-color: initial; font-weight: normal;&quot;&gt;ID&lt;/code&gt;&lt;span style=&quot;font-size: 11px; background-color: initial; font-weight: normal;&quot;&gt; — первичный ключ (PK) для упрощения ссылок.&lt;/span&gt;&lt;/h4&gt;&lt;h4 style=&quot;text-align: justify;&quot;&gt;&lt;span style=&quot;font-size: 11px; background-color: initial; font-weight: normal;&quot;&gt;Атрибуты&lt;/span&gt;&lt;span style=&quot;font-size: 11px; background-color: initial; font-weight: normal;&quot;&gt;:&lt;/span&gt;&lt;/h4&gt;&lt;h4 style=&quot;text-align: justify;&quot;&gt;&lt;code style=&quot;font-size: 11px; background-color: initial; font-weight: normal;&quot;&gt;&lt;font face=&quot;Helvetica&quot;&gt;-&amp;nbsp;&lt;/font&gt;ID сделки&lt;/code&gt;&lt;span style=&quot;font-size: 11px; background-color: initial; font-weight: normal;&quot;&gt; (FK) — внешний ключ на таблицу &quot;Сделки&quot;.&lt;/span&gt;&lt;/h4&gt;&lt;h4 style=&quot;text-align: justify;&quot;&gt;&lt;code style=&quot;font-size: 11px; background-color: initial; font-weight: normal;&quot;&gt;&lt;font face=&quot;Helvetica&quot;&gt;-&amp;nbsp;&lt;/font&gt;ID клиента&lt;/code&gt;&lt;span style=&quot;font-size: 11px; background-color: initial; font-weight: normal;&quot;&gt; (FK) — внешний ключ на таблицу &quot;Клиенты&quot;.&lt;/span&gt;&lt;/h4&gt;&lt;h4 style=&quot;text-align: justify;&quot;&gt;&lt;code style=&quot;font-size: 11px; background-color: initial; font-weight: normal;&quot;&gt;&lt;font face=&quot;Helvetica&quot;&gt;-&amp;nbsp;&lt;/font&gt;Роль клиента&lt;/code&gt;&lt;span style=&quot;font-size: 11px; background-color: initial; font-weight: normal;&quot;&gt; — роль клиента в сделке (например, &quot;Продавец&quot; или &quot;Покупатель&quot;).&lt;/span&gt;&lt;/h4&gt;&lt;div style=&quot;text-align: justify;&quot;&gt;&lt;h3&gt;&lt;span style=&quot;font-weight: normal;&quot;&gt;&lt;u&gt;&lt;font style=&quot;font-size: 12px;&quot;&gt;Связи между сущностями:&lt;/font&gt;&lt;/u&gt;&lt;/span&gt;&lt;/h3&gt;&lt;h3&gt;&lt;font style=&quot;font-size: 11px;&quot;&gt;&lt;span style=&quot;background-color: initial;&quot;&gt;&lt;span style=&quot;font-weight: normal;&quot;&gt;1) Квартиры - Сделки (1:1&lt;/span&gt;&lt;/span&gt;&lt;span style=&quot;background-color: initial; font-weight: normal;&quot;&gt;): к&lt;/span&gt;&lt;span style=&quot;background-color: initial; font-weight: normal;&quot;&gt;аждая квартира участвует только в одной сделке.&lt;/span&gt;&lt;/font&gt;&lt;/h3&gt;&lt;h3&gt;&lt;font style=&quot;font-size: 11px;&quot;&gt;&lt;span style=&quot;background-color: initial; font-weight: normal;&quot;&gt;2) Риэлторы - Сделки (&lt;/span&gt;&lt;span style=&quot;background-color: initial; font-weight: normal;&quot;&gt;1:N&lt;/span&gt;&lt;span style=&quot;background-color: initial; font-weight: normal;&quot;&gt;): о&lt;/span&gt;&lt;span style=&quot;background-color: initial; font-weight: normal;&quot;&gt;дин риэлтор может участвовать в нескольких сделках.&lt;/span&gt;&lt;/font&gt;&lt;/h3&gt;&lt;h3&gt;&lt;font style=&quot;font-size: 11px;&quot;&gt;&lt;span style=&quot;background-color: initial; font-weight: normal;&quot;&gt;3) Сделки - Сделки-Клиенты (&lt;/span&gt;&lt;span style=&quot;background-color: initial; font-weight: normal;&quot;&gt;1:N&lt;/span&gt;&lt;span style=&quot;background-color: initial; font-weight: normal;&quot;&gt;): к&lt;/span&gt;&lt;span style=&quot;background-color: initial; font-weight: normal;&quot;&gt;аждая сделка может включать одного или нескольких клиентов.&lt;/span&gt;&lt;/font&gt;&lt;/h3&gt;&lt;h3&gt;&lt;font style=&quot;font-size: 11px;&quot;&gt;&lt;span style=&quot;background-color: initial; font-weight: normal;&quot;&gt;4) Клиенты - Сделки-Клиенты (&lt;/span&gt;&lt;span style=&quot;background-color: initial; font-weight: normal;&quot;&gt;1:N&lt;/span&gt;&lt;span style=&quot;background-color: initial; font-weight: normal;&quot;&gt;): о&lt;/span&gt;&lt;span style=&quot;background-color: initial; font-weight: normal;&quot;&gt;дин клиент может участвовать в нескольких сделках через таблицу &quot;Сделки-Клиенты&quot;.&lt;/span&gt;&lt;/font&gt;&lt;/h3&gt;&lt;h3&gt;&lt;font style=&quot;font-size: 11px;&quot;&gt;&lt;span style=&quot;background-color: initial; font-weight: normal;&quot;&gt;5) Клиенты - Сделки (&lt;/span&gt;&lt;span style=&quot;background-color: initial; font-weight: normal;&quot;&gt;M:N&lt;/span&gt;&lt;span style=&quot;background-color: initial; font-weight: normal;&quot;&gt;, через &quot;Сделки-Клиенты&quot;): р&lt;/span&gt;&lt;span style=&quot;background-color: initial; font-weight: normal;&quot;&gt;еализуется как связь &quot;многие ко многим&quot;, чтобы учитывать роли клиентов.&lt;/span&gt;&lt;/font&gt;&lt;/h3&gt;&lt;/div&gt;" style="text;strokeColor=none;align=center;fillColor=none;html=1;verticalAlign=middle;whiteSpace=wrap;rounded=0;" parent="WIyWlLk6GJQsqaUBKTNV-1" vertex="1">
          <mxGeometry y="1040" width="1130" height="80" as="geometry" />
        </mxCell>
      </root>
    </mxGraphModel>
  </diagram>
</mxfile>
